<svg width="50" height="50" viewBox="0 0 50 50" fill="none" xmlns="http://www.w3.org/2000/svg">
<rect x="0.641357" y="0.783173" width="48.8794" height="48.8794" rx="11.9606" fill="#36DA76"/>
<path d="M31.411 34.75C31.37 33.8728 31.3156 33.0003 31.2721 32.1297C31.1315 29.4063 31.143 26.6429 30.9958 23.906C30.8487 21.1896 30.9359 18.4714 30.8583 15.7552C30.8427 15.1906 30.8679 14.0757 30.2837 13.7539C29.0271 13.0625 28.2811 14.9483 27.9615 15.716C27.3852 17.1095 27.0522 18.5752 26.6406 20.0189C26.2898 21.2546 25.8902 22.4864 25.7548 23.7658C25.6545 24.7259 25.6637 25.8007 26.1653 26.6657C26.4171 27.1005 26.8526 27.3963 27.3485 27.5214C27.8631 27.6531 28.4515 27.4807 28.9398 27.7131C29.0657 27.7739 29.1766 27.9003 29.2271 28.028C29.3854 28.4393 29.2357 29.0634 29.1862 29.4877C29.0295 30.8547 28.8637 32.2354 28.7895 33.609C28.7456 34.4397 28.6971 35.5035 29.1996 36.2273C29.5076 36.6668 30.1319 37.0772 30.6951 36.8588C31.537 36.5365 31.446 35.4481 31.411 34.75V34.75Z" fill="white"/>
<path d="M20.7014 14.3603C20.4594 14.4572 20.5512 15.3222 20.5404 15.588C20.5245 16.0654 20.5571 16.6972 20.4996 17.316C20.4992 17.3215 20.4984 17.3254 20.4976 17.3292C20.4926 17.3722 20.4886 17.4186 20.4815 17.4676C20.474 17.5149 20.466 17.5605 20.4602 17.6073C20.4086 17.909 20.3104 18.2663 20.1249 18.4375C19.9142 18.6335 19.4421 18.5922 19.2781 18.3608C19.0098 17.9839 19.03 17.1427 19.0137 17.1179C19.0028 16.7199 18.9448 15.5161 18.8578 14.7225C18.8506 14.6627 18.839 14.3029 18.5106 14.2645C18.3574 14.2479 18.1963 14.3784 18.144 14.6168C17.9898 15.3204 17.8453 16.6617 17.8362 16.8727C17.8344 16.8931 17.8335 16.9169 17.8334 16.9369C17.8334 16.9369 17.8326 16.9407 17.833 16.9424C17.832 16.9862 17.7799 18.0371 17.5139 18.3996C17.3749 18.5897 17.0141 18.7392 16.6555 18.538C16.5127 18.4571 16.4148 18.301 16.3458 18.1338C15.9708 16.9667 16.3074 15.6809 16.3553 15.0682C16.3695 14.8959 16.5256 14.3205 16.1774 14.3397C15.6532 14.3682 14.9763 16.6016 14.8552 17.1135C14.5585 18.3872 14.5135 19.7482 15.0297 20.9768C15.3164 21.6571 15.8773 22.214 16.5728 22.4841C16.8801 22.6023 17.2217 22.6881 17.5834 22.7379C17.4533 25.6334 17.3055 28.655 17.171 30.3366C17.0675 31.602 16.9453 32.8813 16.9617 34.1521C16.9715 34.9113 16.9635 35.8165 17.4618 36.4531C17.9831 37.1181 19.0827 36.8122 19.3796 36.0263C19.7126 35.1405 19.6157 34.1082 19.5023 32.4816C19.3885 30.8534 19.2603 28.6322 19.1897 27.4372C19.0863 25.6775 19.0502 24.1398 19.0403 22.7368C19.9662 22.6045 20.8298 22.2072 21.3132 21.4765C21.5252 21.1569 21.6648 20.7999 21.7602 20.4324C21.9064 19.8759 21.9777 19.2663 21.9461 18.6923C21.914 18.1637 21.4797 14.0485 20.7014 14.3603V14.3603Z" fill="white"/>
</svg>
