<svg width="89" height="19" viewBox="0 0 89 19" fill="none" xmlns="http://www.w3.org/2000/svg">
<line x1="4.45569" y1="9.0279" x2="81.8648" y2="9.0279" stroke="#CCCCCC" stroke-width="0.74754" stroke-dasharray="2.24 2.24"/>
<path d="M43.7616 16.4423H42.7409C42.6383 16.4423 42.5374 16.4188 42.4474 16.3739C42.3573 16.329 42.281 16.2642 42.2254 16.1855C42.1699 16.1067 42.1368 16.0164 42.1292 15.923C42.1217 15.8295 42.1399 15.7358 42.1822 15.6504L44.6539 10.6658L40.9425 10.5905L39.589 12.0892C39.3309 12.3856 39.125 12.5178 38.5997 12.5178H37.9126C37.8038 12.521 37.6958 12.5001 37.5976 12.4571C37.4995 12.414 37.4142 12.35 37.3489 12.2704C37.2577 12.1579 37.168 11.9673 37.2554 11.6953L38.0154 9.20744C38.0211 9.18886 38.028 9.17029 38.0357 9.15207C38.0361 9.15034 38.0361 9.14855 38.0357 9.14682C38.0278 9.12861 38.021 9.11001 38.0154 9.0911L37.2546 6.58743C37.1722 6.32077 37.2623 6.13435 37.3528 6.02467C37.4135 5.95098 37.4924 5.89136 37.5829 5.85058C37.6735 5.80981 37.7733 5.78902 37.8742 5.7899H38.5997C38.992 5.7899 39.3727 5.95073 39.5967 6.21039L40.9222 7.68386L44.6539 7.6334L42.183 2.65759C42.1406 2.57225 42.1223 2.47856 42.1298 2.3851C42.1373 2.29163 42.1703 2.20137 42.2258 2.12257C42.2813 2.04376 42.3575 1.97893 42.4475 1.93398C42.5375 1.88904 42.6383 1.86543 42.7409 1.86531H43.7727C43.9167 1.86796 44.0581 1.9002 44.1866 1.95965C44.315 2.0191 44.4272 2.10423 44.5147 2.20871L49.3096 7.53493L51.5247 7.48167C51.6869 7.47361 52.1363 7.47081 52.2402 7.47081C54.3591 7.47186 55.6245 8.10049 55.6245 9.15382C55.6245 9.48531 55.4795 10.0999 54.5098 10.491C53.9373 10.7223 53.1735 10.8393 52.2395 10.8393C52.1367 10.8393 51.6885 10.8365 51.524 10.8284L49.3092 10.7745L44.5024 16.1007C44.4148 16.2047 44.3028 16.2894 44.1745 16.3486C44.0463 16.4077 43.9052 16.4397 43.7616 16.4423V16.4423Z" fill="#1262AE"/>
<circle cx="4.6492" cy="9.40167" r="2.99016" fill="white" stroke="#1262AE" stroke-width="1.49508"/>
<circle cx="84.898" cy="9.08994" r="2.99016" fill="white" stroke="#1262AE" stroke-width="1.49508"/>
</svg>
