<svg width="24" height="24" viewBox="0 0 24 24" fill="none" xmlns="http://www.w3.org/2000/svg">
<path d="M16.3071 1.2708C15.8146 0.783154 15.1467 0.509224 14.4504 0.509224C13.754 0.509224 13.0862 0.783154 12.5936 1.2708L1.06096 12.697C0.817051 12.9386 0.623572 13.2255 0.491569 13.5412C0.359567 13.8569 0.291626 14.1952 0.291626 14.537C0.291626 14.8787 0.359567 15.217 0.491569 15.5327C0.623572 15.8485 0.817051 16.1353 1.06096 16.3769L2.42914 17.7312C3.02451 18.3222 3.86153 18.2169 4.36701 17.9185C4.64585 17.7545 4.97189 17.6872 5.29365 17.7272C5.61542 17.7672 5.91457 17.9122 6.14387 18.1393C6.37318 18.3665 6.51957 18.6629 6.55993 18.9816C6.60029 19.3004 6.53232 19.6234 6.36675 19.8996C6.06673 20.4004 5.95933 21.2296 6.55587 21.8194L7.92522 23.1748C8.16913 23.4164 8.45869 23.6081 8.77737 23.7389C9.09605 23.8697 9.43761 23.937 9.78254 23.937C10.1275 23.937 10.469 23.8697 10.7877 23.7389C11.1064 23.6081 11.396 23.4164 11.6399 23.1748L23.1714 11.751C23.4153 11.5093 23.6087 11.2225 23.7407 10.9068C23.8727 10.5911 23.9407 10.2527 23.9407 9.91097C23.9407 9.56926 23.8727 9.23088 23.7407 8.91518C23.6087 8.59947 23.4153 8.31262 23.1714 8.07099L21.8043 6.71558C21.209 6.12576 20.3708 6.22985 19.8653 6.52822C19.5865 6.69224 19.2604 6.75958 18.9387 6.71959C18.6169 6.67961 18.3177 6.53459 18.0884 6.30742C17.8591 6.08026 17.7127 5.7839 17.6724 5.46514C17.632 5.14638 17.7 4.82338 17.8656 4.54715C18.1667 4.04639 18.273 3.21718 17.6764 2.62737L16.3083 1.2708H16.3071Z" fill="white"/>
</svg>
