<svg width="50" height="50" viewBox="0 0 50 50" fill="none" xmlns="http://www.w3.org/2000/svg">
<rect x="0.71228" y="0.783173" width="48.8794" height="48.8794" rx="11.9606" fill="#F9668D"/>
<path d="M24.2966 21.8309H26.0086V20.983C26.0086 20.7581 26.0988 20.5424 26.2593 20.3833C26.4199 20.2243 26.6376 20.135 26.8646 20.135H29.4327C29.6597 20.135 29.8774 20.2243 30.038 20.3833C30.1985 20.5424 30.2887 20.7581 30.2887 20.983V21.8309H33.7128V18.439C33.7128 17.5394 33.352 16.6766 32.7099 16.0405C32.0677 15.4044 31.1968 15.047 30.2887 15.047H20.0165C19.1084 15.047 18.2374 15.4044 17.5953 16.0405C16.9532 16.6766 16.5924 17.5394 16.5924 18.439V21.8309H20.0165V20.983C20.0165 20.7581 20.1067 20.5424 20.2672 20.3833C20.4277 20.2243 20.6455 20.135 20.8725 20.135H23.4406C23.6676 20.135 23.8853 20.2243 24.0458 20.3833C24.2064 20.5424 24.2966 20.7581 24.2966 20.983V21.8309Z" fill="white"/>
<path d="M17.4485 23.527C16.3134 23.527 15.2248 23.9737 14.4221 24.7688C13.6195 25.564 13.1686 26.6424 13.1686 27.7669V34.5509C13.1686 34.7758 13.2588 34.9914 13.4193 35.1505C13.5798 35.3095 13.7975 35.3988 14.0246 35.3988C14.2516 35.3988 14.4693 35.3095 14.6298 35.1505C14.7904 34.9914 14.8805 34.7758 14.8805 34.5509V30.3109H35.4241V34.5509C35.4241 34.7758 35.5143 34.9914 35.6748 35.1505C35.8353 35.3095 36.0531 35.3988 36.2801 35.3988C36.5071 35.3988 36.7248 35.3095 36.8854 35.1505C37.0459 34.9914 37.1361 34.7758 37.1361 34.5509V27.7669C37.1361 26.6424 36.6851 25.564 35.8825 24.7688C35.0799 23.9737 33.9913 23.527 32.8562 23.527H17.4485Z" fill="white"/>
</svg>
