<svg width="131" height="26" viewBox="0 0 131 26" fill="none" xmlns="http://www.w3.org/2000/svg">
<g clip-path="url(#clip0_1038_1489)">
<path d="M97.8619 6.88755C98.8809 6.88755 99.8061 7.01717 100.637 7.2764C101.469 7.53564 102.171 7.87086 102.743 8.28206C103.1 8.53236 103.382 8.80947 103.587 9.11341C103.793 9.41734 103.896 9.81066 103.896 10.2934V19.6795L103.891 19.9347C103.862 20.7747 103.685 21.5076 103.359 22.1333C103.002 22.8217 102.515 23.3938 101.898 23.8497C101.281 24.3056 100.557 24.6408 99.7257 24.8553C98.8943 25.0699 98.0049 25.1771 97.0573 25.1771C95.4304 25.1771 94.1521 24.9581 93.2224 24.5201C92.2928 24.0821 91.8279 23.3714 91.8279 22.3881C91.8279 21.9769 91.9128 21.6149 92.0827 21.302C92.2525 20.9891 92.4447 20.7522 92.6593 20.5913C93.1777 20.8774 93.7633 21.1187 94.4158 21.3154C95.0684 21.5121 95.7433 21.6104 96.4405 21.6104C97.406 21.6104 98.1747 21.4495 98.7468 21.1277C99.319 20.8059 99.605 20.2874 99.605 19.5723V19.1432L99.4011 19.227C98.7081 19.4929 97.8822 19.6259 96.9233 19.6259C96.1187 19.6259 95.3544 19.5052 94.6304 19.2639C93.9063 19.0225 93.2716 18.6471 92.7263 18.1375C92.181 17.628 91.743 16.971 91.4122 16.1664C91.0815 15.3619 90.9161 14.4054 90.9161 13.2969C90.9161 12.2064 91.0904 11.2588 91.4391 10.4543C91.7877 9.64976 92.2704 8.98379 92.8872 8.45638C93.504 7.92896 94.237 7.53564 95.0862 7.2764C95.9355 7.01717 96.8607 6.88755 97.8619 6.88755ZM25.6765 7.30387C27.2709 7.30387 28.5755 7.66163 29.5905 8.37714C30.6054 9.09266 31.2062 10.3565 31.3929 12.1686H27.9864L27.9538 11.9681C27.8766 11.5729 27.7281 11.212 27.5081 10.8853C27.1348 10.372 26.5553 10.1154 25.7698 10.1154C24.6499 10.1154 23.8838 10.6715 23.4716 11.7836C23.2539 12.3747 23.145 13.1602 23.145 14.1402C23.145 15.0734 23.2539 15.824 23.4716 16.3917C23.8683 17.4494 24.6149 17.9783 25.7115 17.9783C26.4892 17.9783 27.0414 17.7683 27.3681 17.3483C27.6947 16.9283 27.893 16.3839 27.963 15.7151H31.3579L31.3348 15.9474C31.2221 16.873 30.8643 17.7521 30.2612 18.5849C29.2191 20.0393 27.6753 20.7665 25.6298 20.7665C23.5844 20.7665 22.0795 20.1598 21.1151 18.9466C20.1507 17.7333 19.6685 16.1584 19.6685 14.2218C19.6685 12.0364 20.2013 10.337 21.2667 9.12377C22.3322 7.9105 23.8022 7.30387 25.6765 7.30387ZM56.5735 7.26887C57.6312 7.26887 58.5839 7.46719 59.4316 7.86384C60.2794 8.26048 60.9793 8.88656 61.5315 9.74207C62.0293 10.4965 62.352 11.3714 62.4998 12.3669C62.5854 12.9502 62.6204 13.7902 62.6048 14.8868H53.9019L53.9139 15.1079C53.997 16.2662 54.3935 17.0869 55.1035 17.57C55.5624 17.8888 56.1146 18.0483 56.7601 18.0483C57.4445 18.0483 58.0006 17.8538 58.4284 17.465C58.6617 17.255 58.8678 16.9633 59.0467 16.59H62.4415L62.4163 16.7643C62.2937 17.4623 61.9093 18.1703 61.2632 18.8882C60.1744 20.1248 58.65 20.7431 56.6901 20.7431C55.0724 20.7431 53.6453 20.222 52.4087 19.1799C51.1721 18.1377 50.5538 16.4423 50.5538 14.0935C50.5538 11.8925 51.1118 10.2048 52.2279 9.03044C53.3439 7.85606 54.7925 7.26887 56.5735 7.26887ZM79.9185 2.59674C80.3118 2.59674 80.6649 2.62356 80.9778 2.67719C81.2906 2.73083 81.5543 2.8381 81.7689 2.999C81.9834 3.15991 82.1488 3.37892 82.265 3.65603C82.3812 3.93315 82.4393 4.29518 82.4393 4.74214V20.2963L82.3493 20.3125C82.1577 20.3464 81.8972 20.3902 81.5678 20.4438C81.1834 20.5064 80.7945 20.5377 80.4012 20.5377C80.0079 20.5377 79.6548 20.5109 79.3419 20.4572C79.029 20.4036 78.7653 20.2963 78.5508 20.1354C78.3362 19.9745 78.1709 19.7555 78.0547 19.4784C77.9384 19.2013 77.8803 18.8392 77.8803 18.3923V2.8381L77.9704 2.82195C78.1619 2.78802 78.4224 2.74423 78.7519 2.6906C79.1363 2.62802 79.5252 2.59674 79.9185 2.59674ZM86.7716 7.23618C87.1649 7.23618 87.518 7.26299 87.8309 7.31663C88.1438 7.37026 88.4075 7.47753 88.622 7.63844C88.8365 7.79935 89.0019 8.01836 89.1181 8.29547C89.2343 8.57259 89.2924 8.93462 89.2924 9.38158V20.2963L89.2024 20.3125C89.0109 20.3464 88.7503 20.3902 88.4209 20.4438C88.0365 20.5064 87.6476 20.5377 87.2543 20.5377C86.861 20.5377 86.5079 20.5109 86.195 20.4572C85.8821 20.4036 85.6184 20.2963 85.4039 20.1354C85.1893 19.9745 85.024 19.7555 84.9078 19.4784C84.7916 19.2013 84.7334 18.8392 84.7334 18.3923V7.47753L84.8235 7.46139C85.015 7.42746 85.2755 7.38367 85.605 7.33004C85.9894 7.26746 86.3783 7.23618 86.7716 7.23618ZM108.121 2.59674C108.514 2.59674 108.867 2.62356 109.18 2.67719C109.493 2.73083 109.757 2.8381 109.971 2.999C110.186 3.15991 110.351 3.37892 110.467 3.65603C110.584 3.93315 110.642 4.29518 110.642 4.74214V7.37026L110.734 7.33611C110.964 7.25496 111.286 7.16355 111.701 7.06186C112.175 6.94565 112.698 6.88755 113.27 6.88755C115.04 6.88755 116.421 7.33004 117.413 8.21502C118.405 9.1 118.901 10.4185 118.901 12.1706V20.2963L118.819 20.3193C118.64 20.3653 118.386 20.4113 118.057 20.4572C117.672 20.5109 117.275 20.5377 116.863 20.5377C116.47 20.5377 116.117 20.5109 115.804 20.4572C115.491 20.4036 115.227 20.2963 115.013 20.1354C114.798 19.9745 114.633 19.7555 114.517 19.4784C114.401 19.2013 114.342 18.8392 114.342 18.3923V12.4388L114.339 12.2735C114.313 11.628 114.131 11.1691 113.793 10.8968C113.426 10.6018 112.975 10.4543 112.438 10.4543C112.081 10.4543 111.741 10.499 111.419 10.5884C111.098 10.6778 110.838 10.785 110.642 10.9102V20.2963L110.559 20.3193C110.38 20.3653 110.126 20.4113 109.797 20.4572C109.413 20.5109 109.015 20.5377 108.604 20.5377C108.21 20.5377 107.857 20.5109 107.544 20.4572C107.231 20.4036 106.968 20.2963 106.753 20.1354C106.539 19.9745 106.373 19.7555 106.257 19.4784C106.141 19.2013 106.083 18.8392 106.083 18.3923V2.8381L106.173 2.82195C106.364 2.78802 106.625 2.74423 106.954 2.6906C107.339 2.62802 107.727 2.59674 108.121 2.59674ZM76.0153 4.0717L76.0768 4.17562C76.1773 4.35813 76.2686 4.5872 76.3505 4.86282C76.4489 5.19357 76.498 5.53773 76.498 5.8953C76.498 6.59255 76.3505 7.08868 76.0555 7.38367C75.7605 7.67867 75.3627 7.82616 74.8622 7.82616H69.2305V10.8565H75.1035L75.1732 10.9601C75.2861 11.1414 75.3836 11.3661 75.4655 11.6343C75.5639 11.9561 75.613 12.2958 75.613 12.6533C75.613 13.3327 75.4655 13.8199 75.1705 14.1149C74.8756 14.4099 74.4778 14.5574 73.9772 14.5574H69.2841V20.2159L69.193 20.2389C68.997 20.2848 68.719 20.3308 68.3589 20.3768C67.9387 20.4304 67.5231 20.4572 67.1119 20.4572C66.7007 20.4572 66.3386 20.4259 66.0258 20.3634C65.7129 20.3008 65.4492 20.1891 65.2346 20.0282C65.0201 19.8673 64.8592 19.6438 64.7519 19.3577C64.6447 19.0717 64.591 18.6962 64.591 18.2314V6.56574L64.5957 6.3769C64.6298 5.69677 64.8517 5.15186 65.2615 4.74214C65.7084 4.29518 66.3163 4.0717 67.0851 4.0717H76.0153ZM12.9842 3.15076V6.17226H4.36302V10.127H11.9109V13.1135H4.36302V20.3231H0.793213V3.15076H12.9842ZM17.8546 7.60718V20.3231H14.4831V7.60718H17.8546ZM36.2283 3.18576V12.4486L40.3697 7.66551H44.4878L40.043 12.5302L44.6628 20.3231H40.6497L37.6048 14.8868L36.2283 16.3217V20.3231H32.9618V3.18576H36.2283ZM48.9966 3.12743V20.3231H45.6717V3.12743H48.9966ZM119.15 3.96142C119.707 3.79383 120.658 3.75655 121.772 4.24896C122.896 4.74606 123.597 5.5987 123.875 6.80688L129.909 7.31971C129.984 7.32404 130.058 7.33918 130.132 7.36512C130.243 7.40404 130.302 7.45878 130.352 7.50164C130.475 7.60672 130.515 7.68775 130.573 7.83284C130.677 8.09083 130.645 8.39449 130.51 8.60269C130.292 8.93837 129.951 9.15557 129.486 9.25427L124.615 10.2897L125.475 14.3351C125.574 14.7994 125.791 15.0985 126.128 15.2324C126.464 15.3662 126.9 15.3761 127.436 15.2623C127.704 15.2053 127.976 15.1241 128.253 15.0187C128.529 14.9134 128.767 14.8022 128.966 14.6852C129.168 14.8475 129.353 15.0368 129.52 15.2533C129.688 15.4697 129.807 15.7476 129.88 16.087C130.146 17.3414 128.172 18.5266 126.877 18.7592C125.679 18.9746 123.84 19.1535 122.788 16.399C121.737 13.6446 120.085 9.02745 118.825 5.1797C118.716 4.84765 118.649 4.52152 118.766 4.2524C118.829 4.10694 118.875 4.04415 119.15 3.96142ZM98.0764 10.4543C97.2004 10.4543 96.5433 10.7001 96.1053 11.1918C95.6673 11.6834 95.4483 12.3851 95.4483 13.2969C95.4483 14.3339 95.6673 15.0803 96.1053 15.5362C96.5433 15.9921 97.102 16.2201 97.7814 16.2201C98.5144 16.2201 99.0955 16.0502 99.5246 15.7105V10.7761L99.4425 10.7332C99.3238 10.676 99.1679 10.6188 98.9748 10.5616C98.7334 10.49 98.434 10.4543 98.0764 10.4543ZM56.5735 10.0104C55.8035 10.0104 55.2066 10.2515 54.7827 10.7337C54.3589 11.2159 54.0925 11.8692 53.9836 12.6936H59.1517C59.0972 11.8147 58.8308 11.1478 58.3525 10.6928C57.8742 10.2379 57.2812 10.0104 56.5735 10.0104ZM17.8546 3.02244V6.0906H14.4831V3.02244H17.8546ZM87.0129 1.25586C87.7638 1.25586 88.3672 1.48828 88.8231 1.95312C89.279 2.41795 89.507 2.99006 89.507 3.66944C89.507 4.34882 89.279 4.92093 88.8231 5.38576C88.3672 5.8506 87.7638 6.08302 87.0129 6.08302C86.2621 6.08302 85.6587 5.8506 85.2028 5.38576C84.7469 4.92093 84.5189 4.34882 84.5189 3.66944C84.5189 2.99006 84.7469 2.41795 85.2028 1.95312C85.6587 1.48828 86.2621 1.25586 87.0129 1.25586Z" fill="white"/>
</g>
<defs>
<clipPath id="clip0_1038_1489">
<rect width="130.072" height="24.6688" fill="white" transform="translate(0.793213 0.863159)"/>
</clipPath>
</defs>
</svg>
