<svg width="19" height="19" viewBox="0 0 19 19" fill="none" xmlns="http://www.w3.org/2000/svg">
<path d="M16.5756 14.6789C16.095 14.2505 15.6743 13.7594 15.3247 13.2187C14.9431 12.4725 14.7143 11.6575 14.6519 10.8216V8.35971C14.6552 7.04684 14.179 5.77795 13.3127 4.79145C12.4464 3.80494 11.2497 3.16873 9.94741 3.00235V2.35946C9.94741 2.18301 9.87732 2.01379 9.75255 1.88902C9.62778 1.76425 9.45855 1.69415 9.2821 1.69415C9.10565 1.69415 8.93643 1.76425 8.81166 1.88902C8.68689 2.01379 8.61679 2.18301 8.61679 2.35946V3.01231C7.32617 3.19069 6.14392 3.83075 5.28901 4.81394C4.4341 5.79713 3.96447 7.05682 3.9671 8.35971V10.8216C3.90468 11.6575 3.67594 12.4725 3.29431 13.2187C2.95088 13.7581 2.5369 14.2492 2.06336 14.6789C2.0102 14.7256 1.9676 14.7831 1.93838 14.8476C1.90917 14.912 1.89401 14.9819 1.89392 15.0527V15.7305C1.89392 15.8626 1.94643 15.9894 2.03989 16.0828C2.13335 16.1763 2.26011 16.2288 2.39228 16.2288H16.2467C16.3789 16.2288 16.5056 16.1763 16.5991 16.0828C16.6925 15.9894 16.745 15.8626 16.745 15.7305V15.0527C16.745 14.9819 16.7298 14.912 16.7006 14.8476C16.6714 14.7831 16.6288 14.7256 16.5756 14.6789ZM2.93051 15.2321C3.39419 14.7842 3.80244 14.2822 4.14651 13.737C4.62723 12.8357 4.90772 11.8413 4.9688 10.8216V8.35971C4.94904 7.77565 5.047 7.19359 5.25687 6.64818C5.46674 6.10277 5.78422 5.60517 6.1904 5.18501C6.59658 4.76486 7.08316 4.43073 7.62116 4.20253C8.15916 3.97434 8.73758 3.85674 9.32197 3.85674C9.90637 3.85674 10.4848 3.97434 11.0228 4.20253C11.5608 4.43073 12.0474 4.76486 12.4535 5.18501C12.8597 5.60517 13.1772 6.10277 13.3871 6.64818C13.5969 7.19359 13.6949 7.77565 13.6751 8.35971V10.8216C13.7362 11.8413 14.0167 12.8357 14.4974 13.737C14.8415 14.2822 15.2498 14.7842 15.7134 15.2321H2.93051Z" fill="#424242"/>
<path d="M9.34452 17.8637C9.65845 17.8565 9.95971 17.7385 10.195 17.5305C10.4303 17.3226 10.5845 17.0381 10.6303 16.7275H8.00891C8.05599 17.0466 8.21739 17.3377 8.46307 17.5467C8.70875 17.7557 9.02199 17.8684 9.34452 17.8637V17.8637Z" fill="#424242"/>
<circle cx="14.171" cy="4.87415" r="2.61639" fill="#F99A0E" stroke="white" stroke-width="0.74754"/>
</svg>
