<svg width="98" height="23" viewBox="0 0 98 23" fill="none" xmlns="http://www.w3.org/2000/svg">
<g clip-path="url(#clip0_1038_1495)">
<path d="M12.0063 0.911865C6.06109 0.911865 1.2417 5.73125 1.2417 11.6764C1.2417 17.6216 6.06109 22.441 12.0063 22.441C17.9515 22.441 22.7708 17.6216 22.7708 11.6764C22.7708 5.73125 17.9515 0.911865 12.0063 0.911865ZM14.5561 8.35063H12.9381C12.7463 8.35063 12.5333 8.60293 12.5333 8.9382V10.1066H14.5572L14.2511 11.7729H12.5333V16.775H10.6237V11.7729H8.89127V10.1066H10.6237V9.12658C10.6237 7.72046 11.5992 6.57784 12.9381 6.57784H14.5561V8.35063V8.35063Z" fill="white"/>
</g>
<g clip-path="url(#clip1_1038_1495)">
<path d="M86.7603 0.911865C80.8151 0.911865 75.9957 5.73125 75.9957 11.6764C75.9957 17.6216 80.8151 22.441 86.7603 22.441C92.7055 22.441 97.5249 17.6216 97.5249 11.6764C97.5249 5.73125 92.7055 0.911865 86.7603 0.911865ZM91.139 9.72984C91.1435 9.82179 91.1446 9.91374 91.1446 10.0034C91.1446 12.8067 89.013 16.0372 85.1131 16.0372C83.9607 16.0391 82.8323 15.7082 81.8635 15.0841C82.0284 15.1043 82.1977 15.1121 82.3693 15.1121C83.3627 15.1121 84.2766 14.7746 85.0021 14.205C84.56 14.1963 84.1316 14.0499 83.7766 13.7862C83.4217 13.5225 83.1578 13.1546 83.0219 12.7338C83.3394 12.7942 83.6664 12.7816 83.9783 12.6968C83.4985 12.5998 83.0669 12.3398 82.7569 11.9609C82.4469 11.582 82.2774 11.1075 82.2773 10.6179V10.5921C82.5632 10.7502 82.8907 10.8467 83.2383 10.8579C82.7884 10.5584 82.4699 10.0984 82.348 9.57189C82.2261 9.04539 82.3099 8.4922 82.5823 8.02545C83.1149 8.6803 83.779 9.216 84.5318 9.59788C85.2845 9.97975 86.1091 10.1993 86.952 10.2423C86.8449 9.78738 86.891 9.30981 87.0832 8.88382C87.2755 8.45783 87.6031 8.1073 88.0151 7.88671C88.4272 7.66612 88.9005 7.58783 89.3616 7.66402C89.8227 7.74021 90.2457 7.96661 90.5649 8.30802C91.0394 8.21414 91.4944 8.04009 91.9105 7.79334C91.7523 8.28463 91.4212 8.7018 90.9787 8.96735C91.399 8.91673 91.8094 8.80373 92.1964 8.63208C91.9121 9.05806 91.5541 9.42982 91.139 9.72984V9.72984Z" fill="white"/>
</g>
<g clip-path="url(#clip2_1038_1495)">
<path d="M52.7472 11.6764C52.7472 12.5686 52.3927 13.4242 51.7619 14.0551C51.131 14.686 50.2754 15.0404 49.3832 15.0404C48.4911 15.0404 47.6354 14.686 47.0046 14.0551C46.3737 13.4242 46.0193 12.5686 46.0193 11.6764C46.0193 11.4847 46.0395 11.2974 46.0742 11.1158H44.898V15.5977C44.898 15.9094 45.1503 16.1617 45.462 16.1617H53.3056C53.455 16.1614 53.5981 16.1018 53.7037 15.9961C53.8092 15.8903 53.8685 15.747 53.8685 15.5977V11.1158H52.6922C52.727 11.2974 52.7472 11.4847 52.7472 11.6764V11.6764ZM49.3832 13.9191C49.6778 13.919 49.9695 13.8609 50.2416 13.7481C50.5137 13.6353 50.761 13.47 50.9692 13.2616C51.1775 13.0533 51.3426 12.806 51.4553 12.5338C51.568 12.2616 51.6259 11.9699 51.6258 11.6753C51.6258 11.3807 51.5677 11.0891 51.4549 10.8169C51.3421 10.5448 51.1768 10.2976 50.9684 10.0893C50.7601 9.88107 50.5128 9.71589 50.2406 9.60323C49.9684 9.49057 49.6767 9.43262 49.3821 9.4327C48.7872 9.43284 48.2167 9.66932 47.7961 10.0901C47.3755 10.5109 47.1393 11.0815 47.1395 11.6764C47.1396 12.2714 47.3761 12.8419 47.7969 13.2624C48.2177 13.683 48.7883 13.9192 49.3832 13.9191V13.9191ZM52.0744 9.32169H53.4188C53.5081 9.32169 53.5938 9.28628 53.6571 9.22323C53.7203 9.16017 53.756 9.07461 53.7563 8.98529V7.64084C53.7563 7.55133 53.7208 7.46548 53.6575 7.40218C53.5942 7.33889 53.5083 7.30333 53.4188 7.30333H52.0744C51.9849 7.30333 51.899 7.33889 51.8357 7.40218C51.7724 7.46548 51.7369 7.55133 51.7369 7.64084V8.98529C51.738 9.17031 51.8894 9.32169 52.0744 9.32169V9.32169ZM49.3832 0.911865C46.5283 0.911865 43.7903 2.04599 41.7715 4.06473C39.7528 6.08348 38.6187 8.82149 38.6187 11.6764C38.6187 14.5314 39.7528 17.2694 41.7715 19.2881C43.7903 21.3069 46.5283 22.441 49.3832 22.441C50.7968 22.441 52.1966 22.1626 53.5026 21.6216C54.8087 21.0806 55.9953 20.2877 56.9949 19.2881C57.9945 18.2886 58.7874 17.1019 59.3284 15.7959C59.8694 14.4898 60.1478 13.0901 60.1478 11.6764C60.1478 10.2628 59.8694 8.86303 59.3284 7.55701C58.7874 6.25099 57.9945 5.06432 56.9949 4.06473C55.9953 3.06515 54.8087 2.27224 53.5026 1.73127C52.1966 1.1903 50.7968 0.911865 49.3832 0.911865V0.911865ZM54.9898 16.0372C54.9898 16.7223 54.4291 17.283 53.744 17.283H45.0225C44.3373 17.283 43.7767 16.7223 43.7767 16.0372V7.31566C43.7767 6.63054 44.3373 6.06989 45.0225 6.06989H53.744C54.4291 6.06989 54.9898 6.63054 54.9898 7.31566V16.0372V16.0372Z" fill="white"/>
</g>
<defs>
<clipPath id="clip0_1038_1495">
<rect width="22.4262" height="22.4262" fill="white" transform="translate(0.793213 0.463135)"/>
</clipPath>
<clipPath id="clip1_1038_1495">
<rect width="22.4262" height="22.4262" fill="white" transform="translate(75.5471 0.463135)"/>
</clipPath>
<clipPath id="clip2_1038_1495">
<rect width="22.4262" height="22.4262" fill="white" transform="translate(38.1702 0.463135)"/>
</clipPath>
</defs>
</svg>
