<svg width="13" height="14" viewBox="0 0 13 14" fill="none" xmlns="http://www.w3.org/2000/svg">
<path d="M12.4414 4.69387L8.71162 4.10763L7.04429 0.451988C6.99875 0.351898 6.92383 0.270873 6.83129 0.221623C6.59918 0.0977029 6.31713 0.20097 6.20108 0.451988L4.53375 4.10763L0.803926 4.69387C0.701095 4.70976 0.607078 4.76219 0.535097 4.84162C0.448075 4.93835 0.400122 5.06849 0.401775 5.20344C0.403427 5.33839 0.454551 5.46711 0.543911 5.56131L3.24249 8.40671L2.60494 12.4246C2.58999 12.518 2.59955 12.6142 2.63254 12.7021C2.66554 12.7899 2.72064 12.8661 2.7916 12.9218C2.86257 12.9776 2.94655 13.0107 3.03403 13.0174C3.12152 13.0242 3.209 13.0043 3.28656 12.96L6.62269 11.0631L9.95882 12.96C10.0499 13.0124 10.1557 13.0299 10.257 13.0108C10.5126 12.9632 10.6845 12.701 10.6404 12.4246L10.0029 8.40671L12.7015 5.56131C12.7749 5.48347 12.8234 5.38179 12.8381 5.27058C12.8777 4.99255 12.6985 4.73518 12.4414 4.69387V4.69387Z" fill="#FDBF00"/>
</svg>
