<svg width="21" height="18" viewBox="0 0 21 18" fill="none" xmlns="http://www.w3.org/2000/svg">
<path d="M18.2927 0.521637H2.67857C1.60217 0.521637 0.726807 1.38884 0.726807 2.45519V15.9901C0.726807 17.0564 1.60217 17.9236 2.67857 17.9236H18.2927C19.3691 17.9236 20.2444 17.0564 20.2444 15.9901V2.45519C20.2444 1.38884 19.3691 0.521637 18.2927 0.521637ZM18.2936 6.3223C18.2927 6.3223 18.2927 6.3223 18.2936 6.3223H17.8398L15.2372 2.45519H18.2927L18.2936 6.3223ZM13.9012 12.123L8.53385 15.0233V9.22264L13.9012 12.123ZM12.9604 6.3223L10.3578 2.45519H12.8912L15.4938 6.3223H12.9604V6.3223ZM10.6144 6.3223H8.08104L5.47837 2.45519H8.01175L10.6144 6.3223ZM2.67857 2.45519H3.13235L5.73503 6.3223H2.67857V2.45519Z" fill="white"/>
</svg>
