<svg width="14" height="14" viewBox="0 0 14 14" fill="none" xmlns="http://www.w3.org/2000/svg">
<path d="M13.0157 4.69387L9.28586 4.10763L7.61853 0.451988C7.57299 0.351898 7.49807 0.270873 7.40552 0.221623C7.17342 0.0977029 6.89137 0.20097 6.77531 0.451988L5.10798 4.10763L1.37815 4.69387C1.27531 4.70976 1.1813 4.76219 1.10932 4.84162C1.02229 4.93835 0.974341 5.06849 0.975993 5.20344C0.977646 5.33839 1.02877 5.46711 1.11813 5.56131L3.81671 8.40671L3.17916 12.4246C3.16421 12.518 3.17377 12.6142 3.20677 12.7021C3.23976 12.7899 3.29486 12.8661 3.36583 12.9218C3.43679 12.9776 3.52078 13.0107 3.60826 13.0174C3.69574 13.0242 3.78323 13.0043 3.86078 12.96L7.19692 11.0631L10.5331 12.96C10.6241 13.0124 10.7299 13.0299 10.8313 13.0108C11.0869 12.9632 11.2588 12.701 11.2147 12.4246L10.5771 8.40671L13.2757 5.56131C13.3492 5.48347 13.3976 5.38179 13.4123 5.27058C13.452 4.99255 13.2728 4.73518 13.0157 4.69387V4.69387Z" fill="#FDBF00"/>
</svg>
