<svg width="13" height="14" viewBox="0 0 13 14" fill="none" xmlns="http://www.w3.org/2000/svg">
<path d="M12.2512 4.69387L8.51422 4.10763L6.84369 0.451988C6.79806 0.351898 6.723 0.270873 6.63027 0.221623C6.39772 0.0977029 6.11513 0.20097 5.99885 0.451988L4.32832 4.10763L0.591321 4.69387C0.488292 4.70976 0.394094 4.76219 0.321974 4.84162C0.234785 4.93835 0.18674 5.06849 0.188396 5.20344C0.190052 5.33839 0.241273 5.46711 0.330805 5.56131L3.03457 8.40671L2.39579 12.4246C2.38081 12.518 2.3904 12.6142 2.42345 12.7021C2.45651 12.7899 2.51172 12.8661 2.58282 12.9218C2.65392 12.9776 2.73807 13.0107 2.82572 13.0174C2.91337 13.0242 3.00102 13.0043 3.07873 12.96L6.42127 11.0631L9.76381 12.96C9.85507 13.0124 9.96104 13.0299 10.0626 13.0108C10.3187 12.9632 10.4909 12.701 10.4467 12.4246L9.80797 8.40671L12.5117 5.56131C12.5853 5.48347 12.6339 5.38179 12.6486 5.27058C12.6884 4.99255 12.5088 4.73518 12.2512 4.69387V4.69387Z" fill="#FDBF00"/>
</svg>
