<svg width="21" height="25" viewBox="0 0 21 25" fill="none" xmlns="http://www.w3.org/2000/svg">
<path d="M0.246704 18.1832C0.246704 19.2796 0.737182 20.2639 1.50434 20.9491V22.5439C1.50434 23.578 2.34695 24.4127 3.39079 24.4127C4.43463 24.4127 5.27724 23.578 5.27724 22.5439V21.9209H15.3383V22.5439C15.3383 23.5655 16.1809 24.4127 17.2248 24.4127C18.256 24.4127 19.1112 23.578 19.1112 22.5439V20.9491C19.8784 20.2639 20.3689 19.2796 20.3689 18.1832V5.72424C20.3689 1.3636 15.8665 0.740646 10.3078 0.740646C4.74904 0.740646 0.246704 1.3636 0.246704 5.72424V18.1832ZM4.64843 19.4291C3.60459 19.4291 2.76197 18.5944 2.76197 17.5603C2.76197 16.5262 3.60459 15.6914 4.64843 15.6914C5.69226 15.6914 6.53488 16.5262 6.53488 17.5603C6.53488 18.5944 5.69226 19.4291 4.64843 19.4291ZM15.9671 19.4291C14.9233 19.4291 14.0807 18.5944 14.0807 17.5603C14.0807 16.5262 14.9233 15.6914 15.9671 15.6914C17.011 15.6914 17.8536 16.5262 17.8536 17.5603C17.8536 18.5944 17.011 19.4291 15.9671 19.4291ZM17.8536 11.9537H2.76197V5.72424H17.8536V11.9537Z" fill="white"/>
</svg>
