<svg width="14" height="14" viewBox="0 0 14 14" fill="none" xmlns="http://www.w3.org/2000/svg">
<path d="M12.8032 4.69387L9.07334 4.10763L7.40601 0.451988C7.36047 0.351898 7.28555 0.270873 7.193 0.221623C6.96089 0.0977029 6.67884 0.20097 6.56279 0.451988L4.89546 4.10763L1.16562 4.69387C1.06279 4.70976 0.968773 4.76219 0.896792 4.84162C0.809769 4.93835 0.761816 5.06849 0.763469 5.20344C0.765122 5.33839 0.816245 5.46711 0.905606 5.56131L3.60419 8.40671L2.96664 12.4246C2.95169 12.518 2.96125 12.6142 2.99424 12.7021C3.02724 12.7899 3.08234 12.8661 3.1533 12.9218C3.22427 12.9776 3.30825 13.0107 3.39574 13.0174C3.48322 13.0242 3.5707 13.0043 3.64826 12.96L6.9844 11.0631L10.3205 12.96C10.4116 13.0124 10.5174 13.0299 10.6187 13.0108C10.8744 12.9632 11.0462 12.701 11.0022 12.4246L10.3646 8.40671L13.0632 5.56131C13.1366 5.48347 13.1851 5.38179 13.1998 5.27058C13.2395 4.99255 13.0603 4.73518 12.8032 4.69387V4.69387Z" fill="#FDBF00"/>
</svg>
