<svg width="22" height="20" viewBox="0 0 22 20" fill="none" xmlns="http://www.w3.org/2000/svg">
<path d="M19.4112 3.54814C19.1756 2.90495 18.5159 2.44708 17.7383 2.44708H14.7932V1.35692C14.7932 0.757327 14.263 0.266754 13.6151 0.266754H8.90284C8.2549 0.266754 7.72477 0.757327 7.72477 1.35692V2.44708H4.77961C4.00208 2.44708 3.35414 2.90495 3.10675 3.54814L0.785959 9.72936C0.703495 9.95829 0.656372 10.1981 0.656372 10.4489V18.2544C0.656372 19.1593 1.44568 19.8897 2.42347 19.8897C3.40127 19.8897 4.19057 19.1593 4.19057 18.2544V17.7093H18.3274V18.2544C18.3274 19.1484 19.1167 19.8897 20.0945 19.8897C21.0605 19.8897 21.8616 19.1593 21.8616 18.2544V10.4489C21.8616 10.209 21.8144 9.95829 21.732 9.72936L19.4112 3.54814ZM4.77961 14.4389C3.80181 14.4389 3.01251 13.7085 3.01251 12.8036C3.01251 11.8988 3.80181 11.1684 4.77961 11.1684C5.7574 11.1684 6.54671 11.8988 6.54671 12.8036C6.54671 13.7085 5.7574 14.4389 4.77961 14.4389ZM17.7383 14.4389C16.7605 14.4389 15.9712 13.7085 15.9712 12.8036C15.9712 11.8988 16.7605 11.1684 17.7383 11.1684C18.7161 11.1684 19.5054 11.8988 19.5054 12.8036C19.5054 13.7085 18.7161 14.4389 17.7383 14.4389ZM3.01251 8.98805L4.77961 4.08232H17.7383L19.5054 8.98805H3.01251Z" fill="white"/>
</svg>
