<svg width="20" height="19" viewBox="0 0 20 19" fill="none" xmlns="http://www.w3.org/2000/svg">
<g clip-path="url(#clip0_1038_1444)">
<path d="M9.89288 17.0518C7.85012 17.0518 5.89103 16.2403 4.44658 14.7958C3.00213 13.3514 2.19065 11.3923 2.19065 9.34954C2.19065 7.30678 3.00213 5.34769 4.44658 3.90324C5.89103 2.4588 7.85012 1.64732 9.89288 1.64732C11.9356 1.64732 13.8947 2.4588 15.3392 3.90324C16.7836 5.34769 17.5951 7.30678 17.5951 9.34954C17.5951 11.3923 16.7836 13.3514 15.3392 14.7958C13.8947 16.2403 11.9356 17.0518 9.89288 17.0518ZM9.89288 18.1521C12.2275 18.1521 14.4664 17.2247 16.1172 15.5739C17.768 13.9231 18.6954 11.6841 18.6954 9.34954C18.6954 7.01496 17.768 4.776 16.1172 3.1252C14.4664 1.47441 12.2275 0.546997 9.89288 0.546997C7.5583 0.546997 5.31934 1.47441 3.66854 3.1252C2.01774 4.776 1.09033 7.01496 1.09033 9.34954C1.09033 11.6841 2.01774 13.9231 3.66854 15.5739C5.31934 17.2247 7.5583 18.1521 9.89288 18.1521V18.1521Z" fill="#1262AF"/>
<path d="M7.92793 5.61179C8.03173 5.55834 8.14827 5.53456 8.26471 5.54307C8.38115 5.55158 8.49299 5.59205 8.58791 5.66002L13.0301 8.83299C13.1123 8.89169 13.1794 8.96919 13.2257 9.05904C13.2719 9.14889 13.2961 9.24849 13.2961 9.34955C13.2961 9.45061 13.2719 9.55021 13.2257 9.64006C13.1794 9.7299 13.1123 9.8074 13.0301 9.86611L8.58791 13.0391C8.49302 13.107 8.38124 13.1474 8.26486 13.1559C8.14847 13.1644 8.032 13.1407 7.92824 13.0873C7.82447 13.0339 7.73744 12.953 7.67671 12.8533C7.61597 12.7537 7.58389 12.6392 7.58398 12.5225V6.17658C7.58386 6.05992 7.6159 5.94548 7.67658 5.84584C7.73726 5.7462 7.82423 5.66522 7.92793 5.61179V5.61179Z" fill="#1262AF"/>
</g>
<defs>
<clipPath id="clip0_1038_1444">
<rect width="18.6885" height="18.6885" fill="white" transform="translate(0.548584 0.00537109)"/>
</clipPath>
</defs>
</svg>
