<svg width="20" height="19" viewBox="0 0 20 19" fill="none" xmlns="http://www.w3.org/2000/svg">
<g clip-path="url(#clip0_1038_1398)">
<path d="M10.2547 17.0518C8.21194 17.0518 6.25284 16.2403 4.8084 14.7958C3.36395 13.3514 2.55247 11.3923 2.55247 9.34954C2.55247 7.30678 3.36395 5.34769 4.8084 3.90324C6.25284 2.4588 8.21194 1.64732 10.2547 1.64732C12.2975 1.64732 14.2565 2.4588 15.701 3.90324C17.1454 5.34769 17.9569 7.30678 17.9569 9.34954C17.9569 11.3923 17.1454 13.3514 15.701 14.7958C14.2565 16.2403 12.2975 17.0518 10.2547 17.0518ZM10.2547 18.1521C12.5893 18.1521 14.8282 17.2247 16.479 15.5739C18.1298 13.9231 19.0572 11.6841 19.0572 9.34954C19.0572 7.01496 18.1298 4.776 16.479 3.1252C14.8282 1.47441 12.5893 0.546997 10.2547 0.546997C7.92011 0.546997 5.68115 1.47441 4.03035 3.1252C2.37956 4.776 1.45215 7.01496 1.45215 9.34954C1.45215 11.6841 2.37956 13.9231 4.03035 15.5739C5.68115 17.2247 7.92011 18.1521 10.2547 18.1521V18.1521Z" fill="#1262AF"/>
<path d="M8.28963 5.61179C8.39343 5.55834 8.50996 5.53456 8.6264 5.54307C8.74284 5.55158 8.85468 5.59205 8.94961 5.66002L13.3918 8.83299C13.474 8.89169 13.5411 8.96919 13.5873 9.05904C13.6336 9.14889 13.6577 9.24849 13.6577 9.34955C13.6577 9.45061 13.6336 9.55021 13.5873 9.64006C13.5411 9.7299 13.474 9.8074 13.3918 9.86611L8.94961 13.0391C8.85471 13.107 8.74293 13.1474 8.62655 13.1559C8.51017 13.1644 8.39369 13.1407 8.28993 13.0873C8.18617 13.0339 8.09913 12.953 8.0384 12.8533C7.97767 12.7537 7.94558 12.6392 7.94568 12.5225V6.17658C7.94556 6.05992 7.9776 5.94548 8.03827 5.84584C8.09895 5.7462 8.18592 5.66522 8.28963 5.61179V5.61179Z" fill="#1262AF"/>
</g>
<defs>
<clipPath id="clip0_1038_1398">
<rect width="18.6885" height="18.6885" fill="white" transform="translate(0.9104 0.00537109)"/>
</clipPath>
</defs>
</svg>
